<?xml version="1.0" encoding="utf-8"?>
<!-- Generator: Adobe Illustrator 16.0.0, SVG Export Plug-In . SVG Version: 6.00 Build 0)  -->
<!DOCTYPE svg PUBLIC "-//W3C//DTD SVG 1.1//EN" "http://www.w3.org/Graphics/SVG/1.1/DTD/svg11.dtd">
<svg version="1.1" id="레이어_1" xmlns="http://www.w3.org/2000/svg" xmlns:xlink="http://www.w3.org/1999/xlink" x="0px"
	 y="0px" width="43.714px" height="48.369px" viewBox="0 0 43.714 48.369" enable-background="new 0 0 43.714 48.369"
	 xml:space="preserve">
<g>
	<path fill="#FFFFFF" d="M21.856,45.441H1.105c-0.468,0-0.888-0.296-1.043-0.738c-0.155-0.443-0.015-0.938,0.352-1.23l5.802-4.655
		C2.25,34.745,0,29.266,0,23.583C0,11.531,9.805,1.728,21.856,1.728c12.051,0,21.857,9.804,21.857,21.855
		S33.907,45.441,21.856,45.441z M4.249,43.23h17.607c10.833,0,19.646-8.813,19.646-19.647c0-10.832-8.813-19.645-19.646-19.645
		S2.211,12.751,2.211,23.583c0,5.488,2.34,10.773,6.419,14.496C8.869,38.297,9,38.61,8.99,38.932
		c-0.011,0.321-0.162,0.624-0.415,0.827L4.249,43.23z"/>
	<path fill="#7401B8" d="M22.082,38.158h-0.453c-1.981,0-3.593-1.612-3.593-3.594V21.75c0-1.981,1.611-3.595,3.593-3.595h0.453
		c1.982,0,3.596,1.613,3.596,3.595v12.814C25.678,36.546,24.064,38.158,22.082,38.158z"/>
	<path fill="#FFFFFF" d="M22.082,15.643h-0.453c-1.981,0-3.593-1.61-3.593-3.593v-0.652c0-1.982,1.611-3.593,3.593-3.593h0.453
		c1.982,0,3.596,1.61,3.596,3.593v0.652C25.678,14.032,24.064,15.643,22.082,15.643z M21.629,10.016
		c-0.762,0-1.382,0.618-1.382,1.382v0.652c0,0.762,0.62,1.382,1.382,1.382h0.453c0.763,0,1.385-0.62,1.385-1.382v-0.652
		c0-0.764-0.622-1.382-1.385-1.382H21.629z"/>
</g>
</svg>
