<?xml version="1.0" encoding="utf-8"?>
<!-- Generator: Adobe Illustrator 16.0.0, SVG Export Plug-In . SVG Version: 6.00 Build 0)  -->
<!DOCTYPE svg PUBLIC "-//W3C//DTD SVG 1.1//EN" "http://www.w3.org/Graphics/SVG/1.1/DTD/svg11.dtd">
<svg version="1.1" id="레이어_1" xmlns="http://www.w3.org/2000/svg" xmlns:xlink="http://www.w3.org/1999/xlink" x="0px"
	 y="0px" width="40.718px" height="48.369px" viewBox="0 0 40.718 48.369" enable-background="new 0 0 40.718 48.369"
	 xml:space="preserve">
<g>
	<path fill="#FFFFFF" d="M39.807,10.421h-2.271V7.885c0-0.503-0.408-0.91-0.912-0.91c-0.502,0-0.909,0.407-0.909,0.91v2.537h-2.271
		c-0.505,0-0.911,0.405-0.911,0.91v2.032h-4.614c-0.102,0.652-0.313,1.26-0.612,1.821h5.227v22.349H8.183V15.184h5.229
		c-0.299-0.561-0.511-1.169-0.612-1.821H8.183v-2.032c0-0.505-0.407-0.91-0.91-0.91H4.531V7.885c0-0.503-0.406-0.91-0.91-0.91
		S2.71,7.382,2.71,7.885v2.537H0.911C0.407,10.421,0,10.826,0,11.332v30.055c0,0.503,0.407,0.911,0.911,0.911H2.71v2.534
		c0,0.505,0.407,0.911,0.911,0.911s0.91-0.405,0.91-0.911v-2.534h2.741c0.503,0,0.91-0.408,0.91-0.911v-2.033h24.35v2.033
		c0,0.503,0.406,0.911,0.911,0.911h2.271v2.534c0,0.505,0.407,0.911,0.909,0.911c0.504,0,0.912-0.405,0.912-0.911v-2.534h2.271
		c0.503,0,0.911-0.408,0.911-0.911V11.332C40.718,10.826,40.31,10.421,39.807,10.421z M6.361,40.476h-4.54V12.243h4.54v2.031v24.169
		V40.476z M38.896,40.476h-4.542v-2.033V14.273v-2.031h4.542V40.476z"/>
	<path fill="#7401B8" d="M20.358,2.496c-5.357,0-9.712,4.358-9.712,9.712c0,5.16,8.841,18.435,9.218,18.997
		c0.109,0.166,0.294,0.264,0.494,0.264c0.197,0,0.385-0.098,0.494-0.264c0.375-0.562,9.219-13.836,9.219-18.997
		C30.071,6.854,25.714,2.496,20.358,2.496z M20.358,18.296c-3.214,0-5.828-2.614-5.828-5.828s2.614-5.828,5.828-5.828
		c3.213,0,5.829,2.614,5.829,5.828S23.571,18.296,20.358,18.296z"/>
</g>
</svg>
