<?xml version="1.0" encoding="utf-8"?>
<!-- Generator: Adobe Illustrator 16.0.0, SVG Export Plug-In . SVG Version: 6.00 Build 0)  -->
<!DOCTYPE svg PUBLIC "-//W3C//DTD SVG 1.1//EN" "http://www.w3.org/Graphics/SVG/1.1/DTD/svg11.dtd">
<svg version="1.1" id="레이어_1" xmlns="http://www.w3.org/2000/svg" xmlns:xlink="http://www.w3.org/1999/xlink" x="0px"
	 y="0px" width="44.25px" height="48.369px" viewBox="0 0 44.25 48.369" enable-background="new 0 0 44.25 48.369"
	 xml:space="preserve">
<g>
	<path fill="#7401B8" d="M30.486,39.377H13.049c-0.579,0-1.047-0.47-1.047-1.046V12.892c0-0.577,0.468-1.046,1.047-1.046h17.438
		c0.576,0,1.046,0.47,1.046,1.046v25.439C31.532,38.907,31.063,39.377,30.486,39.377z"/>
	<path fill="#FFFFFF" d="M42.273,15.384h-5.869v-1.107C36.404,6.406,29.999,0,22.125,0C14.255,0,7.849,6.406,7.849,14.277v1.107
		H1.978C0.887,15.384,0,16.271,0,17.362v13.984c0,1.091,0.887,1.978,1.978,1.978h5.985c1.092,0,1.978-0.887,1.978-1.978V17.201
		v-2.924c0-6.718,5.466-12.185,12.185-12.185s12.187,5.466,12.187,12.185v2.924v14.146c0,1.091,0.887,1.978,1.978,1.978h0.021v7.381
		c0,3.071-2.498,5.57-5.569,5.57h-8.154c-3.071,0-5.57-2.499-5.57-5.57v-1.871c0-0.58-0.465-1.046-1.046-1.046
		c-0.577,0-1.047,0.466-1.047,1.046v1.871c0,4.226,3.438,7.663,7.663,7.663h8.154c4.225,0,7.661-3.437,7.661-7.663v-7.381h3.871
		c1.091,0,1.977-0.887,1.977-1.978V17.362C44.25,16.271,43.364,15.384,42.273,15.384z M2.093,31.232L1.978,17.477h5.879
		l0.106,13.756H2.093z M36.404,31.232V17.46l5.754-0.098l0.115,13.87H36.404z"/>
	<path fill="#FFFFFF" d="M27.203,13.938c-0.579,0-1.047-0.466-1.047-1.046v-4.23c0-0.578,0.468-1.046,1.047-1.046
		c0.578,0,1.046,0.468,1.046,1.046v4.23C28.249,13.472,27.781,13.938,27.203,13.938z"/>
	<path fill="#FFFFFF" d="M27.203,25.401H17.202c-0.577,0-1.045-0.468-1.045-1.046v-6.68c0-0.578,0.468-1.046,1.045-1.046h10.001
		c0.578,0,1.046,0.468,1.046,1.046v6.68C28.249,24.933,27.781,25.401,27.203,25.401z M18.249,23.308h7.907v-4.587h-7.907V23.308z"/>
	<path fill="#FFFFFF" d="M27.203,30.096H17.202c-0.577,0-1.045-0.47-1.045-1.046c0-0.58,0.468-1.046,1.045-1.046h10.001
		c0.578,0,1.046,0.466,1.046,1.046C28.249,29.626,27.781,30.096,27.203,30.096z"/>
	<path fill="#FFFFFF" d="M24.704,33.711h-5.002c-0.577,0-1.047-0.468-1.047-1.046c0-0.579,0.47-1.047,1.047-1.047h5.002
		c0.576,0,1.046,0.468,1.046,1.047C25.75,33.243,25.28,33.711,24.704,33.711z"/>
</g>
</svg>
