<?xml version="1.0" encoding="utf-8"?>
<!-- Generator: Adobe Illustrator 16.0.0, SVG Export Plug-In . SVG Version: 6.00 Build 0)  -->
<!DOCTYPE svg PUBLIC "-//W3C//DTD SVG 1.1//EN" "http://www.w3.org/Graphics/SVG/1.1/DTD/svg11.dtd">
<svg version="1.1" id="레이어_1" xmlns="http://www.w3.org/2000/svg" xmlns:xlink="http://www.w3.org/1999/xlink" x="0px"
	 y="0px" width="56.959px" height="48.369px" viewBox="0 0 56.959 48.369" enable-background="new 0 0 56.959 48.369"
	 xml:space="preserve">
<g>
	<path fill="#FFFFFF" d="M31.363,12.75h-5.095c-0.719,0-1.305-0.581-1.305-1.304V2.8c0-0.719,0.586-1.304,1.305-1.304h5.095
		c0.724,0,1.305,0.585,1.305,1.304v8.646C32.668,12.17,32.087,12.75,31.363,12.75z M27.573,10.142h2.486V4.104h-2.486V10.142z"/>
	<g>
		<path fill="#7401B8" d="M49.63,20.521h-3.671C45.296,12.682,38.7,6.504,30.69,6.504h-4.425c-8.01,0-14.603,6.178-15.268,14.017
			H7.329C3.288,20.521,0,23.81,0,27.85c0,4.178,3.398,7.577,7.574,7.577h39.276h0.651h1.88c4.179,0,7.577-3.398,7.577-7.577
			C56.959,23.81,53.671,20.521,49.63,20.521z"/>
		<path fill="#FFFFFF" d="M39.424,21.509c-1.88-7.556-4.634-9.105-8.191-9.105h-5.51c-3.556,0-6.308,1.549-8.189,9.105
			c-0.098,0.39-0.009,0.803,0.236,1.118c0.25,0.316,0.627,0.502,1.029,0.502h19.358c0.403,0,0.78-0.186,1.027-0.502
			C39.432,22.312,39.521,21.899,39.424,21.509z M25.723,15.013h1.452v5.507h-6.664C22.189,15.013,24.136,15.013,25.723,15.013z
			 M29.784,20.521v-5.507h1.448c1.588,0,3.534,0,5.214,5.507H29.784z"/>
		<g>
			<path fill="#FFFFFF" d="M40.825,41.452c-4.04,0-7.33-3.289-7.33-7.329c0-4.041,3.29-7.33,7.33-7.33s7.329,3.289,7.329,7.33
				C48.154,38.163,44.865,41.452,40.825,41.452z M40.825,29.401c-2.604,0-4.721,2.117-4.721,4.721c0,2.604,2.116,4.72,4.721,4.72
				c2.604,0,4.721-2.117,4.721-4.72C45.546,31.519,43.429,29.401,40.825,29.401z"/>
			<path fill="#FFFFFF" d="M16.134,41.452c-4.04,0-7.329-3.289-7.329-7.329c0-4.041,3.289-7.33,7.329-7.33s7.33,3.289,7.33,7.33
				C23.464,38.163,20.174,41.452,16.134,41.452z M16.134,29.401c-2.604,0-4.721,2.117-4.721,4.721c0,2.604,2.117,4.72,4.721,4.72
				c2.604,0,4.721-2.117,4.721-4.72C20.854,31.519,18.738,29.401,16.134,29.401z"/>
		</g>
	</g>
</g>
</svg>
